<?xml version="1.0" standalone="no"?>
<!DOCTYPE svg PUBLIC "-//W3C//DTD SVG 20010904//EN"
 "http://www.w3.org/TR/2001/REC-SVG-20010904/DTD/svg10.dtd">
<svg version="1.0" xmlns="http://www.w3.org/2000/svg"
 width="128.000000pt" height="128.000000pt" viewBox="0 0 128.000000 128.000000"
 preserveAspectRatio="xMidYMid meet">
<metadata>
Created by potrace 1.14, written by Peter Selinger 2001-2017
</metadata>
<g transform="translate(0.000000,128.000000) scale(0.100000,-0.100000)"
fill="#000000" stroke="none">
<path d="M505 1120 c3 -5 13 -10 21 -10 19 0 18 -26 -1 -34 -10 -4 -15 -19
-14 -48 0 -37 2 -40 11 -21 18 38 45 35 61 -5 16 -40 11 -66 -20 -101 -31 -37
-83 -18 -62 21 12 23 6 34 -13 22 -7 -5 -21 -7 -30 -6 -10 2 -18 -2 -18 -7 0
-6 7 -11 15 -11 13 0 15 -7 9 -35 l-6 -35 63 5 c63 5 119 -8 119 -27 0 -6 -6
-8 -13 -5 -8 3 -14 -1 -14 -9 0 -7 5 -10 10 -7 7 4 8 -1 3 -12 -9 -24 12 -87
27 -78 7 4 8 0 4 -11 -4 -10 -7 -20 -7 -22 0 -2 -7 -4 -15 -4 -17 0 -20 -16
-5 -25 6 -3 10 -12 10 -18 0 -7 -4 -6 -10 3 -8 13 -11 13 -22 1 -10 -10 -10
-12 0 -7 23 13 12 -38 -14 -63 -13 -13 -23 -29 -21 -35 2 -6 -4 -28 -14 -48
-11 -21 -19 -46 -19 -57 0 -27 -10 -51 -22 -51 -5 0 -7 4 -3 9 3 5 1 12 -5 16
-6 4 -10 -7 -10 -26 0 -27 -2 -30 -15 -19 -10 9 -15 9 -15 1 0 -6 -9 -11 -21
-11 -15 0 -19 4 -15 15 3 8 9 22 12 30 4 10 0 15 -11 15 -9 0 -20 -10 -23 -23
l-6 -22 -5 23 c-3 13 -10 23 -14 22 -16 -2 -36 34 -26 46 10 12 2 44 -11 44
-5 0 -11 -6 -13 -12 -3 -7 -6 -3 -6 9 -1 21 -1 21 -41 5 -40 -17 -40 -18 -34
-59 5 -34 2 -45 -15 -62 -22 -22 -46 -19 -38 3 3 7 1 19 -4 27 -7 12 -9 11 -9
-2 0 -10 -9 -16 -27 -17 -16 0 -39 -5 -53 -10 l-25 -9 30 -6 c17 -4 39 -6 50
-4 23 2 31 -39 9 -47 -19 -7 -17 -23 3 -30 10 -4 20 -1 25 9 13 22 31 19 25
-5 -3 -13 0 -20 10 -20 14 0 13 -8 -5 -60 -4 -11 2 -9 19 5 13 11 27 24 30 28
3 5 21 7 39 5 30 -3 35 -8 48 -48 12 -36 16 -41 22 -25 6 18 8 17 24 -10 l17
-30 -5 52 c-3 31 -1 53 4 53 6 0 10 -9 10 -19 0 -11 11 -33 25 -48 l24 -28
-20 54 c-11 29 -18 55 -16 57 2 2 21 -19 42 -48 37 -47 59 -54 36 -9 -14 26
-14 31 2 31 8 0 13 10 13 22 -1 19 4 23 29 23 24 0 30 -4 29 -22 0 -21 0 -22
28 -5 31 18 35 34 14 52 -11 8 -14 28 -12 65 3 57 -6 89 -18 60 -3 -9 -11 -13
-17 -10 -8 5 -8 10 0 18 14 14 14 67 1 67 -21 0 -9 30 30 75 22 25 40 51 40
56 0 6 5 7 10 4 18 -11 21 20 5 58 -8 20 -15 50 -15 67 0 30 -2 36 -34 97 -18
34 -23 110 -6 83 5 -8 17 -37 26 -64 17 -50 41 -86 58 -86 5 0 1 9 -8 19 -9
10 -18 29 -20 42 -1 13 -8 34 -14 46 -14 26 -15 36 -3 29 5 -3 14 0 20 8 9 11
9 15 -1 19 -10 4 -10 6 0 6 10 1 10 4 -2 16 -18 18 -30 20 -19 3 15 -24 14
-48 -2 -42 -8 4 -13 9 -11 13 6 9 -39 62 -46 55 -3 -3 -13 16 -21 41 -16 46
-50 84 -75 85 -7 0 -10 -4 -7 -10z m-170 -660 c-3 -5 -11 -10 -16 -10 -6 0 -7
5 -4 10 3 6 11 10 16 10 6 0 7 -4 4 -10z m278 -103 c3 -8 1 -20 -4 -28 -6 -10
-9 -7 -9 14 0 29 5 35 13 14z m-64 -19 c0 -13 -3 -17 -6 -10 -2 6 -10 9 -16 5
-7 -4 -6 1 2 10 18 22 21 21 20 -5z m-29 -78 c0 -5 -5 -10 -11 -10 -5 0 -7 5
-4 10 3 6 8 10 11 10 2 0 4 -4 4 -10z m-127 -35 c-7 -21 -13 -19 -13 6 0 11 4
18 10 14 5 -3 7 -12 3 -20z"/>
<path d="M434 1105 c8 -8 17 -15 20 -15 3 0 6 7 6 15 0 9 -9 15 -21 15 -18 0
-19 -2 -5 -15z"/>
<path d="M343 1066 c-15 -17 -18 -27 -10 -35 8 -8 5 -11 -12 -11 -12 0 -20 -4
-16 -10 3 -5 12 -7 20 -3 8 3 15 0 15 -6 0 -6 -5 -11 -11 -11 -5 0 -7 -4 -4
-10 3 -5 2 -10 -3 -10 -5 0 -8 -24 -7 -52 0 -29 -4 -59 -9 -67 -6 -7 -12 -30
-13 -51 -1 -20 -7 -48 -13 -61 -10 -23 -10 -23 -5 5 6 31 -11 96 -26 96 -15 0
-10 -62 9 -104 l18 -40 22 38 c12 20 22 42 22 47 0 6 5 7 11 3 8 -4 9 1 4 17
-4 16 -3 20 3 11 5 -8 12 -13 16 -13 12 1 34 26 29 34 -2 4 7 7 20 7 14 0 30
7 37 15 11 13 10 14 -2 10 -11 -4 -18 2 -22 19 -7 28 -25 33 -44 14 -7 -7 -12
-10 -13 -7 -8 44 -8 149 0 154 7 3 11 -2 11 -14 0 -12 4 -21 8 -21 5 0 18 -9
29 -20 19 -17 22 -17 27 -3 9 23 -15 72 -39 79 -11 4 -23 11 -26 15 -3 5 -15
-2 -26 -15z"/>
<path d="M721 894 c0 -11 3 -14 6 -6 3 7 2 16 -1 19 -3 4 -6 -2 -5 -13z"/>
<path d="M930 906 c0 -2 7 -6 15 -10 8 -3 15 -1 15 4 0 6 -7 10 -15 10 -8 0
-15 -2 -15 -4z"/>
<path d="M1035 861 c3 -5 1 -12 -5 -16 -19 -12 -10 -33 25 -54 20 -11 38 -29
41 -38 12 -40 25 -65 30 -61 9 9 -20 103 -36 115 -8 7 -12 13 -8 13 11 0 -34
50 -44 50 -5 0 -7 -4 -3 -9z"/>
<path d="M437 833 c-8 -8 -9 -43 -2 -43 3 0 15 9 27 20 27 25 55 26 61 3 4
-14 5 -12 6 5 1 20 -4 22 -42 22 -24 0 -47 -3 -50 -7z"/>
<path d="M834 815 c-8 -21 6 -41 17 -24 12 19 11 39 -1 39 -6 0 -13 -7 -16
-15z"/>
<path d="M884 809 c-9 -15 11 -33 30 -26 9 4 13 13 10 22 -7 17 -30 20 -40 4z"/>
<path d="M477 803 c-4 -3 -7 -19 -7 -35 0 -41 25 -31 26 10 1 31 -5 39 -19 25z"/>
<path d="M965 790 c-3 -6 1 -7 9 -4 18 7 21 14 7 14 -6 0 -13 -4 -16 -10z"/>
<path d="M811 754 c0 -11 3 -14 6 -6 3 7 2 16 -1 19 -3 4 -6 -2 -5 -13z"/>
<path d="M1015 760 c-3 -5 -1 -10 4 -10 6 0 11 5 11 10 0 6 -2 10 -4 10 -3 0
-8 -4 -11 -10z"/>
<path d="M605 750 c3 -5 8 -10 11 -10 2 0 4 5 4 10 0 6 -5 10 -11 10 -5 0 -7
-4 -4 -10z"/>
<path d="M981 716 c-10 -11 -8 -16 7 -21 14 -4 18 -12 15 -25 -4 -15 -1 -18
16 -13 12 3 18 10 14 17 -4 6 -6 21 -4 34 2 16 -3 22 -17 22 -11 0 -25 -6 -31
-14z"/>
<path d="M797 706 c-4 -10 -5 -21 -2 -24 9 -9 17 6 13 25 -3 17 -4 17 -11 -1z"/>
<path d="M296 703 c-3 -3 -6 -13 -5 -22 0 -12 3 -11 9 4 6 14 9 15 9 5 1 -9
-4 -21 -10 -27 -8 -8 -8 -20 0 -45 5 -18 9 -42 8 -53 -1 -14 5 -21 21 -23 21
-3 22 0 20 37 -2 23 -6 41 -10 41 -4 0 -11 18 -14 40 -7 41 -16 55 -28 43z"/>
<path d="M364 665 c-7 -17 4 -37 17 -30 12 8 12 45 -1 45 -6 0 -13 -7 -16 -15z"/>
<path d="M816 662 c-4 -7 -5 -25 -1 -40 4 -15 4 -24 0 -20 -4 4 -16 -2 -28
-13 -11 -10 -27 -19 -34 -19 -16 0 -18 -56 -1 -66 7 -4 18 2 27 17 24 36 51
60 61 54 14 -8 22 33 11 52 -6 10 -11 14 -12 8 0 -5 -4 1 -8 15 -5 18 -9 21
-15 12z"/>
<path d="M521 634 c0 -11 3 -14 6 -6 3 7 2 16 -1 19 -3 4 -6 -2 -5 -13z"/>
<path d="M1150 647 c0 -2 9 -14 20 -27 19 -22 39 -23 25 -1 -6 11 -45 35 -45
28z"/>
<path d="M1004 629 c-3 -6 -2 -14 3 -18 6 -3 9 -18 9 -33 -2 -36 2 -35 19 5 9
22 10 36 3 45 -13 15 -25 15 -34 1z"/>
<path d="M1062 610 c0 -19 2 -27 5 -17 2 9 2 25 0 35 -3 9 -5 1 -5 -18z"/>
<path d="M448 575 c-2 -27 -1 -61 2 -75 6 -21 8 -16 14 25 4 28 3 61 -2 75 -8
22 -10 19 -14 -25z"/>
<path d="M84 567 c10 -7 34 -22 53 -35 l34 -22 -6 22 c-10 32 -14 35 -60 41
-33 5 -37 4 -21 -6z"/>
<path d="M1140 566 c0 -9 5 -16 10 -16 6 0 10 4 10 9 0 6 -4 13 -10 16 -5 3
-10 -1 -10 -9z"/>
<path d="M170 546 c0 -2 16 -16 35 -30 26 -20 35 -23 35 -12 0 9 -13 22 -30
31 -29 15 -40 18 -40 11z"/>
<path d="M280 530 c0 -5 5 -10 11 -10 5 0 7 5 4 10 -3 6 -8 10 -11 10 -2 0 -4
-4 -4 -10z"/>
<path d="M1081 507 c-14 -46 -25 -109 -22 -129 1 -10 -3 -18 -8 -18 -6 0 -11
-6 -11 -14 0 -19 39 -17 63 2 19 17 24 3 5 -16 -9 -9 -7 -12 10 -12 11 0 26
-8 31 -17 8 -14 9 -11 6 15 -2 17 1 32 6 32 21 0 7 19 -23 29 -47 17 -18 32
57 32 23 0 26 2 15 9 -8 5 -10 10 -5 10 6 1 -12 10 -39 20 -56 22 -78 40 -58
47 17 6 15 30 -2 36 -10 4 -18 -4 -25 -26z m63 -66 c3 -5 -1 -11 -9 -15 -17
-6 -45 2 -45 14 0 5 -3 16 -6 25 -6 16 -5 16 24 1 17 -9 33 -20 36 -25z"/>
<path d="M1175 533 c-31 -5 -45 -18 -45 -41 0 -9 8 -7 26 7 15 12 33 21 40 21
7 0 16 5 19 10 3 6 3 9 -2 9 -4 -1 -21 -4 -38 -6z"/>
<path d="M30 510 l-23 -20 44 1 c24 1 58 4 74 8 l30 7 -34 12 c-47 17 -64 15
-91 -8z"/>
<path d="M1000 475 c0 -15 4 -24 10 -20 6 3 10 12 10 20 0 8 -4 17 -10 20 -6
4 -10 -5 -10 -20z"/>
<path d="M133 482 c-13 -2 -23 -7 -23 -12 0 -4 -10 -6 -22 -3 -13 3 -20 2 -16
-2 4 -5 3 -14 -3 -21 -8 -9 -5 -11 10 -7 12 3 34 0 49 -6 19 -8 36 -9 53 -2
22 9 22 10 3 10 -27 1 -51 27 -32 34 20 7 6 13 -19 9z"/>
<path d="M1166 481 c-8 -12 18 -21 62 -21 34 0 35 1 16 15 -21 16 -70 20 -78
6z"/>
<path d="M720 432 c0 -5 7 -15 15 -22 8 -7 15 -8 15 -2 0 5 -7 15 -15 22 -8 7
-15 8 -15 2z"/>
<path d="M951 404 c0 -11 3 -14 6 -6 3 7 2 16 -1 19 -3 4 -6 -2 -5 -13z"/>
<path d="M752 369 c2 -6 8 -10 13 -10 5 0 11 4 13 10 2 6 -4 11 -13 11 -9 0
-15 -5 -13 -11z"/>
<path d="M940 351 c-14 -27 -13 -124 1 -115 7 4 9 21 5 47 -5 28 -2 47 9 63 8
13 11 24 6 24 -6 0 -15 -9 -21 -19z"/>
<path d="M1191 348 c-12 -31 10 -44 26 -15 16 29 16 37 -2 37 -9 0 -19 -10
-24 -22z"/>
<path d="M140 342 c0 -12 19 -26 26 -19 2 2 -2 10 -11 17 -9 8 -15 8 -15 2z"/>
<path d="M788 335 c-4 -4 -4 -14 -1 -23 5 -14 3 -15 -8 -4 -18 17 -26 15 -32
-7 -3 -14 2 -20 19 -24 13 -2 24 0 24 5 0 5 5 6 10 3 11 -7 12 11 1 38 -3 10
-10 15 -13 12z"/>
<path d="M94 294 c3 -9 6 -27 6 -41 0 -32 22 -25 31 10 6 21 3 29 -11 37 -26
14 -33 12 -26 -6z"/>
<path d="M1057 280 c3 -11 9 -20 13 -20 5 0 6 9 3 20 -3 11 -9 20 -13 20 -5 0
-6 -9 -3 -20z"/>
<path d="M686 274 c-9 -8 -16 -23 -15 -32 0 -14 2 -14 6 -2 3 8 12 23 21 33
19 21 9 23 -12 1z"/>
<path d="M1031 264 c0 -11 3 -14 6 -6 3 7 2 16 -1 19 -3 4 -6 -2 -5 -13z"/>
<path d="M567 250 c-3 -13 0 -20 9 -20 15 0 19 26 5 34 -5 3 -11 -3 -14 -14z"/>
<path d="M720 220 c0 -6 7 -10 15 -10 8 0 15 2 15 4 0 2 -7 6 -15 10 -8 3 -15
1 -15 -4z"/>
<path d="M760 219 c0 -5 5 -7 10 -4 6 3 10 8 10 11 0 2 -4 4 -10 4 -5 0 -10
-5 -10 -11z"/>
<path d="M970 210 c0 -5 5 -10 10 -10 6 0 10 5 10 10 0 6 -4 10 -10 10 -5 0
-10 -4 -10 -10z"/>
</g>
</svg>
